<svg fill="#1A1A1A" xmlns="http://www.w3.org/2000/svg"  viewBox="0 0 64 64" width="64px" height="64px"><path d="M47 34.837V52h7.533C56.448 52 58 50.448 58 48.533V29.486L47 34.837zM47 32l11-7.333v-5.426c0-1.914-.812-3.781-2.325-4.953-2.336-1.809-5.515-1.673-7.665.151L47 15.232V32zM19.814 33.822L32 41 44.349 33.726 43.443 18.023 32 27 20.718 18.149zM17.153 32.102v-16.75L15.99 14.44c-2.15-1.823-5.329-1.961-7.664-.151C6.812 15.46 6 17.328 6 19.243v5.424L17.153 32.102zM6 29.486v19.047C6 50.448 7.552 52 9.467 52H17V34.837L6 29.486z"/></svg>