<svg xmlns="http://www.w3.org/2000/svg" xml:space="preserve" width="24" height="24" id="s">
  <path d="M19.7 23.5H4.3c-2.1 0-3.8-1.7-3.8-3.8V4.3C.5 2.2 2.2.5 4.3.5h15.3c2.1 0 3.8 1.7 3.8 3.8v15.3c.1 2.2-1.6 3.9-3.7 3.9zM4.3 1.5c-1.6 0-2.8 1.3-2.8 2.8v15.3c0 1.6 1.3 2.8 2.8 2.8h15.3c1.6 0 2.8-1.3 2.8-2.8V4.3c0-1.6-1.3-2.8-2.8-2.8H4.3z"></path>
  <path d="M15 18c-1.2 0-2.2-1-2.2-2.2s1-2.2 2.2-2.2c1.2 0 2.2 1 2.2 2.2S16.2 18 15 18zm0-3.3c-.6 0-1.2.5-1.2 1.2S14.4 17 15 17s1.2-.5 1.2-1.2-.6-1.1-1.2-1.1z"></path>
  <path d="M11.2 19.1c-1 0-2-.4-2.7-1.1l-1.1-1.1c-.3-.3-.5-.7-.5-1.2 0-.4.2-.9.5-1.2l.6-.6c.6-.6 1.7-.6 2.4 0 .4.4.6 1.1.4 1.6.2.2.5.2.7 0 .2-.2.2-.5 0-.7l-2.3-2.3-.1-.1-1-1C7.4 10.8 7 9.8 7 8.7c0-1 .4-2 1.1-2.7 1.5-1.5 4-1.5 5.5 0l1 1 .1.1c.3.3.5.7.5 1.2 0 .4-.2.9-.5 1.2l-.1.1-.5.4c-.6.6-1.7.6-2.4 0-.4-.4-.6-1.1-.4-1.6-.2-.2-.5-.2-.7 0-.1.1-.2.2-.2.4s.1.3.1.4l2.3 2.3.1.1 1 1c.4.4.8 1 1 1.6.1.2-.1.5-.3.6-.4.2-.7.6-.7 1.1 0 .4.2.7.5.9.2.2.3.5.1.7-.1.2-.3.4-.5.6-.8.6-1.8 1-2.8 1zm-2-4.7c-.2 0-.4.1-.5.2l-.6.6c-.1.1-.2.3-.2.5s.1.4.2.5l1.1 1.1c1.1 1.1 3 1.1 4.1 0l.1-.1c-.3-.4-.5-.9-.5-1.3 0-.7.4-1.4.9-1.8-.1-.3-.3-.6-.6-.8l-1.1-1.1s0-.1-.1-.1L9.8 9.8c-.3-.3-.5-.7-.5-1.1 0-.4.2-.8.4-1.1.5-.5 1.6-.5 2.1 0l.3.3c.2.2.2.4.1.6-.1.3-.1.6.1.8.3.3.7.3 1 0l.5-.5.1-.1c.2-.2.2-.3.2-.5s-.1-.4-.2-.5l-.1-.1-1-1c-1.1-1.1-3-1.1-4.1 0C8.3 7.2 8 8 8 8.7c0 .8.3 1.5.8 2l1.1 1.1-.3.4.4-.3 2.3 2.3c.6.6.6 1.5 0 2.1-.5.5-1.6.5-2.1 0l-.3-.3c-.2-.2-.2-.4-.1-.6.1-.3.1-.6-.1-.8-.2-.1-.4-.2-.5-.2z"></path>
</svg>
