<svg xmlns="http://www.w3.org/2000/svg" xml:space="preserve" width="24" height="24" id="s">
  <path d="M10.6 22.9c-1.4 0-2.8-.6-3.8-1.6L5 19.5c-.3-.3-.5-.7-.5-1.1 0-.4.2-.8.5-1.1l1-1c.3-.3.7-.5 1.1-.5s.8.2 1.1.5c.5.5.6 1.2.2 1.8-.1.2-.1.4.1.6l.5.5c.8.8 2.3.8 3.2 0 .9-.9.9-2.3 0-3.2l-4-4-.1-.1-1.8-1.8c-1-1-1.6-2.3-1.6-3.8 0-1.4.6-2.8 1.6-3.8S8.6.9 10.1.9c1.4 0 2.8.6 3.8 1.6l1.7 1.7.1.1c.3.3.5.7.5 1.1 0 .4-.2.8-.5 1.2l-.1.1-.9.9c-.6.6-1.6.6-2.2 0-.5-.5-.6-1.2-.3-1.8.1-.2.1-.4-.1-.6l-.4-.4c-.9-.8-2.5-.8-3.3 0-.4.4-.6 1-.6 1.6 0 .6.2 1.1.6 1.6l4 4 .1.1 1.8 1.8c.5.5.9 1.1 1.2 1.8 0 0-.1 0-.1.1-.1 0-.1.1-.2.1-.2.1-.3.2-.4.3l-.4.4s0 .1-.1.1c-.2.3-.4.7-.5 1.1v.1c0 .2-.1.4-.1.6 0 .2 0 .4.1.7 0 .1.1.2.1.4 0 .1 0 .2.1.2.1.2.2.4.3.5.1.2.3.3.4.5-.1.2-.3.3-.4.5-1 1.1-2.3 1.6-3.7 1.6zm6.6-2c-.5 0-1-.2-1.4-.5-.1-.1-.3-.2-.4-.4-.1-.1-.2-.2-.2-.4v-.1c-.1-.1-.1-.3-.1-.4V19c0-.2-.1-.3-.1-.5s0-.4.1-.6v-.1c.1-.2.2-.4.3-.5.1-.2.3-.3.4-.5 0 0 .1 0 .1-.1l.6-.3c.3-.1.6-.2.9-.2 1.3 0 2.3 1.1 2.3 2.3-.2 1.4-1.3 2.4-2.5 2.4z"></path>
</svg>
